<mxfile host="65bd71144e">
    <diagram name="Page-1" id="DDO3kRVDG654JI0cqC7M">
        <mxGraphModel dx="954" dy="878" grid="0" gridSize="10" guides="1" tooltips="1" connect="1" arrows="1" fold="1" page="1" pageScale="1" pageWidth="1100" pageHeight="850" math="0" shadow="0">
            <root>
                <mxCell id="0"/>
                <mxCell id="1" parent="0"/>
                <mxCell id="FlTn0mczWMOFFjhAPzZO-1" value="" style="rounded=0;whiteSpace=wrap;html=1;fillColor=#FFFF99;" parent="1" vertex="1">
                    <mxGeometry x="148" y="484" width="266" height="151" as="geometry"/>
                </mxCell>
                <mxCell id="FlTn0mczWMOFFjhAPzZO-3" value="&lt;h1 style=&quot;margin-top: 0px;&quot;&gt;Xgmii Agent&lt;/h1&gt;" style="text;html=1;whiteSpace=wrap;overflow=hidden;rounded=0;" parent="1" vertex="1">
                    <mxGeometry x="152" y="486" width="180" height="42" as="geometry"/>
                </mxCell>
                <mxCell id="FlTn0mczWMOFFjhAPzZO-13" style="edgeStyle=orthogonalEdgeStyle;rounded=0;orthogonalLoop=1;jettySize=auto;html=1;entryX=0;entryY=0.5;entryDx=0;entryDy=0;exitX=0.5;exitY=1;exitDx=0;exitDy=0;" parent="1" source="FlTn0mczWMOFFjhAPzZO-4" target="FlTn0mczWMOFFjhAPzZO-5" edge="1">
                    <mxGeometry relative="1" as="geometry"/>
                </mxCell>
                <mxCell id="FlTn0mczWMOFFjhAPzZO-4" value="Sequencer" style="rounded=0;whiteSpace=wrap;html=1;" parent="1" vertex="1">
                    <mxGeometry x="171" y="537" width="79" height="29" as="geometry"/>
                </mxCell>
                <mxCell id="FlTn0mczWMOFFjhAPzZO-8" style="edgeStyle=orthogonalEdgeStyle;rounded=0;orthogonalLoop=1;jettySize=auto;html=1;exitX=0.5;exitY=1;exitDx=0;exitDy=0;entryX=0;entryY=0.5;entryDx=0;entryDy=0;" parent="1" source="FlTn0mczWMOFFjhAPzZO-5" target="FlTn0mczWMOFFjhAPzZO-7" edge="1">
                    <mxGeometry relative="1" as="geometry"/>
                </mxCell>
                <mxCell id="FlTn0mczWMOFFjhAPzZO-5" value="Driver" style="rounded=1;whiteSpace=wrap;html=1;" parent="1" vertex="1">
                    <mxGeometry x="332" y="588" width="65" height="32" as="geometry"/>
                </mxCell>
                <mxCell id="FlTn0mczWMOFFjhAPzZO-6" value="Monitor" style="rounded=1;whiteSpace=wrap;html=1;" parent="1" vertex="1">
                    <mxGeometry x="332" y="537" width="65" height="32" as="geometry"/>
                </mxCell>
                <mxCell id="FlTn0mczWMOFFjhAPzZO-9" style="edgeStyle=orthogonalEdgeStyle;rounded=0;orthogonalLoop=1;jettySize=auto;html=1;entryX=1;entryY=0.5;entryDx=0;entryDy=0;" parent="1" source="FlTn0mczWMOFFjhAPzZO-7" target="FlTn0mczWMOFFjhAPzZO-6" edge="1">
                    <mxGeometry relative="1" as="geometry">
                        <Array as="points">
                            <mxPoint x="475" y="553"/>
                        </Array>
                    </mxGeometry>
                </mxCell>
                <mxCell id="FlTn0mczWMOFFjhAPzZO-14" style="edgeStyle=orthogonalEdgeStyle;rounded=0;orthogonalLoop=1;jettySize=auto;html=1;exitX=0.033;exitY=1;exitDx=0;exitDy=0;entryX=-0.012;entryY=0.758;entryDx=0;entryDy=0;exitPerimeter=0;entryPerimeter=0;" parent="1" source="FlTn0mczWMOFFjhAPzZO-7" target="FlTn0mczWMOFFjhAPzZO-10" edge="1">
                    <mxGeometry relative="1" as="geometry">
                        <Array as="points">
                            <mxPoint x="426" y="751"/>
                            <mxPoint x="508" y="751"/>
                        </Array>
                    </mxGeometry>
                </mxCell>
                <mxCell id="FlTn0mczWMOFFjhAPzZO-58" style="edgeStyle=orthogonalEdgeStyle;rounded=0;orthogonalLoop=1;jettySize=auto;html=1;exitX=0.813;exitY=1.003;exitDx=0;exitDy=0;entryX=1;entryY=0.25;entryDx=0;entryDy=0;exitPerimeter=0;" parent="1" edge="1">
                    <mxGeometry relative="1" as="geometry">
                        <mxPoint x="613.4939999999999" y="670.999" as="sourcePoint"/>
                        <mxPoint x="573" y="730.18" as="targetPoint"/>
                        <Array as="points">
                            <mxPoint x="614" y="695.93"/>
                            <mxPoint x="613" y="695.93"/>
                            <mxPoint x="613" y="729.93"/>
                        </Array>
                    </mxGeometry>
                </mxCell>
                <mxCell id="FlTn0mczWMOFFjhAPzZO-59" value="s_udp" style="edgeLabel;html=1;align=center;verticalAlign=middle;resizable=0;points=[];" parent="FlTn0mczWMOFFjhAPzZO-58" vertex="1" connectable="0">
                    <mxGeometry x="0.5304" relative="1" as="geometry">
                        <mxPoint x="11" y="8" as="offset"/>
                    </mxGeometry>
                </mxCell>
                <mxCell id="FlTn0mczWMOFFjhAPzZO-7" value="&lt;b&gt;INTERFACE&lt;/b&gt;" style="rounded=0;whiteSpace=wrap;html=1;fillColor=#60a917;strokeColor=#2D7600;fontColor=#ffffff;" parent="1" vertex="1">
                    <mxGeometry x="418" y="648" width="238" height="23" as="geometry"/>
                </mxCell>
                <mxCell id="FlTn0mczWMOFFjhAPzZO-10" value="DUT" style="rounded=0;whiteSpace=wrap;html=1;" parent="1" vertex="1">
                    <mxGeometry x="519" y="720" width="52" height="41" as="geometry"/>
                </mxCell>
                <mxCell id="FlTn0mczWMOFFjhAPzZO-16" value="&lt;font style=&quot;color: light-dark(rgb(237, 12, 12), rgb(237, 237, 237));&quot;&gt;Rx&lt;/font&gt;C/D" style="text;html=1;align=center;verticalAlign=middle;resizable=0;points=[];autosize=1;strokeColor=none;fillColor=none;" parent="1" vertex="1">
                    <mxGeometry x="451" y="745" width="53" height="26" as="geometry"/>
                </mxCell>
                <mxCell id="FlTn0mczWMOFFjhAPzZO-19" value="&lt;font style=&quot;color: light-dark(rgb(24, 29, 191), rgb(237, 237, 237));&quot;&gt;Tx&lt;/font&gt;C/D" style="text;html=1;align=center;verticalAlign=middle;resizable=0;points=[];autosize=1;strokeColor=none;fillColor=none;" parent="1" vertex="1">
                    <mxGeometry x="455" y="710" width="52" height="26" as="geometry"/>
                </mxCell>
                <mxCell id="FlTn0mczWMOFFjhAPzZO-20" style="edgeStyle=orthogonalEdgeStyle;rounded=0;orthogonalLoop=1;jettySize=auto;html=1;exitX=0;exitY=0.25;exitDx=0;exitDy=0;" parent="1" source="FlTn0mczWMOFFjhAPzZO-10" edge="1">
                    <mxGeometry relative="1" as="geometry">
                        <mxPoint x="518" y="731" as="sourcePoint"/>
                        <mxPoint x="441" y="671" as="targetPoint"/>
                        <Array as="points">
                            <mxPoint x="512" y="730"/>
                            <mxPoint x="441" y="731"/>
                        </Array>
                    </mxGeometry>
                </mxCell>
                <mxCell id="FlTn0mczWMOFFjhAPzZO-21" value="" style="rounded=0;whiteSpace=wrap;html=1;fillColor=#66B2FF;" parent="1" vertex="1">
                    <mxGeometry x="659" y="486" width="266" height="151" as="geometry"/>
                </mxCell>
                <mxCell id="FlTn0mczWMOFFjhAPzZO-22" value="&lt;h1 style=&quot;margin-top: 0px;&quot;&gt;UDP Agent&lt;/h1&gt;" style="text;html=1;whiteSpace=wrap;overflow=hidden;rounded=0;" parent="1" vertex="1">
                    <mxGeometry x="789.5" y="486" width="131" height="42" as="geometry"/>
                </mxCell>
                <mxCell id="FlTn0mczWMOFFjhAPzZO-23" style="edgeStyle=orthogonalEdgeStyle;rounded=0;orthogonalLoop=1;jettySize=auto;html=1;entryX=1;entryY=0.5;entryDx=0;entryDy=0;exitX=0.5;exitY=1;exitDx=0;exitDy=0;" parent="1" source="FlTn0mczWMOFFjhAPzZO-24" target="FlTn0mczWMOFFjhAPzZO-25" edge="1">
                    <mxGeometry relative="1" as="geometry"/>
                </mxCell>
                <mxCell id="FlTn0mczWMOFFjhAPzZO-24" value="Sequencer" style="rounded=0;whiteSpace=wrap;html=1;" parent="1" vertex="1">
                    <mxGeometry x="792" y="541.5" width="82" height="28.5" as="geometry"/>
                </mxCell>
                <mxCell id="FlTn0mczWMOFFjhAPzZO-27" style="edgeStyle=orthogonalEdgeStyle;rounded=0;orthogonalLoop=1;jettySize=auto;html=1;exitX=0.5;exitY=1;exitDx=0;exitDy=0;entryX=1;entryY=0.5;entryDx=0;entryDy=0;" parent="1" source="FlTn0mczWMOFFjhAPzZO-25" target="FlTn0mczWMOFFjhAPzZO-7" edge="1">
                    <mxGeometry relative="1" as="geometry"/>
                </mxCell>
                <mxCell id="FlTn0mczWMOFFjhAPzZO-25" value="Driver" style="rounded=1;whiteSpace=wrap;html=1;" parent="1" vertex="1">
                    <mxGeometry x="673" y="588" width="65" height="32" as="geometry"/>
                </mxCell>
                <mxCell id="FlTn0mczWMOFFjhAPzZO-26" value="Monitor" style="rounded=1;whiteSpace=wrap;html=1;" parent="1" vertex="1">
                    <mxGeometry x="680" y="537" width="65" height="32" as="geometry"/>
                </mxCell>
                <mxCell id="FlTn0mczWMOFFjhAPzZO-28" style="edgeStyle=orthogonalEdgeStyle;rounded=0;orthogonalLoop=1;jettySize=auto;html=1;exitX=0.75;exitY=0;exitDx=0;exitDy=0;entryX=0;entryY=0.5;entryDx=0;entryDy=0;" parent="1" source="FlTn0mczWMOFFjhAPzZO-7" target="FlTn0mczWMOFFjhAPzZO-26" edge="1">
                    <mxGeometry relative="1" as="geometry"/>
                </mxCell>
                <mxCell id="FlTn0mczWMOFFjhAPzZO-29" value="" style="rhombus;whiteSpace=wrap;html=1;" parent="1" vertex="1">
                    <mxGeometry x="380" y="530" width="12" height="15" as="geometry"/>
                </mxCell>
                <mxCell id="FlTn0mczWMOFFjhAPzZO-31" value="" style="rhombus;whiteSpace=wrap;html=1;" parent="1" vertex="1">
                    <mxGeometry x="337" y="530" width="12" height="15" as="geometry"/>
                </mxCell>
                <mxCell id="FlTn0mczWMOFFjhAPzZO-32" value="" style="rounded=1;whiteSpace=wrap;html=1;fillColor=#ffcc99;strokeColor=#36393d;" parent="1" vertex="1">
                    <mxGeometry x="223.5" y="171" width="654" height="286" as="geometry"/>
                </mxCell>
                <mxCell id="FlTn0mczWMOFFjhAPzZO-33" value="&lt;h1 style=&quot;margin-top: 0px;&quot;&gt;Scoreboard&lt;/h1&gt;" style="text;html=1;whiteSpace=wrap;overflow=hidden;rounded=0;" parent="1" vertex="1">
                    <mxGeometry x="483" y="179" width="143" height="40" as="geometry"/>
                </mxCell>
                <mxCell id="FlTn0mczWMOFFjhAPzZO-34" value="" style="rounded=1;whiteSpace=wrap;html=1;" parent="1" vertex="1">
                    <mxGeometry x="380" y="225" width="341" height="90" as="geometry"/>
                </mxCell>
                <mxCell id="FlTn0mczWMOFFjhAPzZO-36" value="&lt;h1 style=&quot;margin-top: 0px;&quot;&gt;XGMII&lt;/h1&gt;" style="text;html=1;whiteSpace=wrap;overflow=hidden;rounded=0;" parent="1" vertex="1">
                    <mxGeometry x="508" y="222" width="83" height="42" as="geometry"/>
                </mxCell>
                <mxCell id="FlTn0mczWMOFFjhAPzZO-37" value="PREDICTOR" style="rounded=1;whiteSpace=wrap;html=1;fillColor=#1ba1e2;fontColor=#ffffff;strokeColor=#006EAF;" parent="1" vertex="1">
                    <mxGeometry x="585" y="272" width="102" height="34" as="geometry"/>
                </mxCell>
                <mxCell id="FlTn0mczWMOFFjhAPzZO-38" value="EVALUATOR" style="rounded=1;whiteSpace=wrap;html=1;" parent="1" vertex="1">
                    <mxGeometry x="396.5" y="276" width="116" height="33" as="geometry"/>
                </mxCell>
                <mxCell id="FlTn0mczWMOFFjhAPzZO-39" value="" style="rounded=1;whiteSpace=wrap;html=1;" parent="1" vertex="1">
                    <mxGeometry x="380" y="335" width="341" height="95" as="geometry"/>
                </mxCell>
                <mxCell id="FlTn0mczWMOFFjhAPzZO-40" value="EVALUATOR" style="rounded=1;whiteSpace=wrap;html=1;" parent="1" vertex="1">
                    <mxGeometry x="595" y="377" width="116" height="33" as="geometry"/>
                </mxCell>
                <mxCell id="FlTn0mczWMOFFjhAPzZO-41" value="&lt;h1 style=&quot;margin-top: 0px;&quot;&gt;UDP&lt;/h1&gt;" style="text;html=1;whiteSpace=wrap;overflow=hidden;rounded=0;" parent="1" vertex="1">
                    <mxGeometry x="517.5" y="335" width="56" height="37" as="geometry"/>
                </mxCell>
                <mxCell id="FlTn0mczWMOFFjhAPzZO-57" style="edgeStyle=orthogonalEdgeStyle;rounded=0;orthogonalLoop=1;jettySize=auto;html=1;entryX=0.002;entryY=0.655;entryDx=0;entryDy=0;entryPerimeter=0;" parent="1" source="FlTn0mczWMOFFjhAPzZO-42" target="FlTn0mczWMOFFjhAPzZO-40" edge="1">
                    <mxGeometry relative="1" as="geometry"/>
                </mxCell>
                <mxCell id="FlTn0mczWMOFFjhAPzZO-42" value="PREDICTOR" style="rounded=1;whiteSpace=wrap;html=1;fillColor=#1ba1e2;fontColor=#ffffff;strokeColor=#006EAF;" parent="1" vertex="1">
                    <mxGeometry x="387" y="382" width="102" height="34" as="geometry"/>
                </mxCell>
                <mxCell id="FlTn0mczWMOFFjhAPzZO-43" style="edgeStyle=orthogonalEdgeStyle;rounded=0;orthogonalLoop=1;jettySize=auto;html=1;entryX=0.5;entryY=1;entryDx=0;entryDy=0;fillColor=#e51400;strokeColor=#B20000;strokeWidth=2;exitX=0.5;exitY=0;exitDx=0;exitDy=0;" parent="1" edge="1">
                    <mxGeometry relative="1" as="geometry">
                        <mxPoint x="387" y="530" as="sourcePoint"/>
                        <mxPoint x="438" y="416" as="targetPoint"/>
                        <Array as="points">
                            <mxPoint x="387" y="477"/>
                            <mxPoint x="438" y="477"/>
                        </Array>
                    </mxGeometry>
                </mxCell>
                <mxCell id="FlTn0mczWMOFFjhAPzZO-44" value="Xgmii Send" style="edgeLabel;html=1;align=center;verticalAlign=middle;resizable=0;points=[];" parent="FlTn0mczWMOFFjhAPzZO-43" vertex="1" connectable="0">
                    <mxGeometry x="-0.0722" y="1" relative="1" as="geometry">
                        <mxPoint x="32" y="-36" as="offset"/>
                    </mxGeometry>
                </mxCell>
                <mxCell id="FlTn0mczWMOFFjhAPzZO-45" style="edgeStyle=orthogonalEdgeStyle;rounded=0;orthogonalLoop=1;jettySize=auto;html=1;exitX=0.5;exitY=0;exitDx=0;exitDy=0;entryX=0;entryY=0.5;entryDx=0;entryDy=0;strokeColor=#10739e;strokeWidth=4;fillColor=#b1ddf0;" parent="1" source="FlTn0mczWMOFFjhAPzZO-31" target="FlTn0mczWMOFFjhAPzZO-38" edge="1">
                    <mxGeometry relative="1" as="geometry">
                        <Array as="points">
                            <mxPoint x="343" y="499"/>
                            <mxPoint x="342" y="499"/>
                            <mxPoint x="342" y="292"/>
                        </Array>
                    </mxGeometry>
                </mxCell>
                <mxCell id="FlTn0mczWMOFFjhAPzZO-46" value="Xgmii Receive" style="edgeLabel;html=1;align=center;verticalAlign=middle;resizable=0;points=[];" parent="FlTn0mczWMOFFjhAPzZO-45" vertex="1" connectable="0">
                    <mxGeometry x="0.4419" y="-1" relative="1" as="geometry">
                        <mxPoint y="120" as="offset"/>
                    </mxGeometry>
                </mxCell>
                <mxCell id="FlTn0mczWMOFFjhAPzZO-55" style="edgeStyle=orthogonalEdgeStyle;rounded=0;orthogonalLoop=1;jettySize=auto;html=1;exitX=0.521;exitY=0.113;exitDx=0;exitDy=0;entryX=0.848;entryY=1.01;entryDx=0;entryDy=0;fillColor=#b1ddf0;strokeColor=#10739e;strokeWidth=3;entryPerimeter=0;exitPerimeter=0;" parent="1" source="FlTn0mczWMOFFjhAPzZO-47" target="FlTn0mczWMOFFjhAPzZO-40" edge="1">
                    <mxGeometry relative="1" as="geometry">
                        <mxPoint x="691.7" y="530" as="sourcePoint"/>
                        <mxPoint x="694.2719999999999" y="410.693" as="targetPoint"/>
                        <Array as="points"/>
                    </mxGeometry>
                </mxCell>
                <mxCell id="FlTn0mczWMOFFjhAPzZO-56" value="UDP Receive" style="edgeLabel;html=1;align=center;verticalAlign=middle;resizable=0;points=[];" parent="FlTn0mczWMOFFjhAPzZO-55" vertex="1" connectable="0">
                    <mxGeometry x="-0.0009" y="1" relative="1" as="geometry">
                        <mxPoint x="1" y="-30" as="offset"/>
                    </mxGeometry>
                </mxCell>
                <mxCell id="FlTn0mczWMOFFjhAPzZO-47" value="" style="rhombus;whiteSpace=wrap;html=1;" parent="1" vertex="1">
                    <mxGeometry x="687" y="530" width="12" height="15" as="geometry"/>
                </mxCell>
                <mxCell id="FlTn0mczWMOFFjhAPzZO-51" style="edgeStyle=orthogonalEdgeStyle;rounded=0;orthogonalLoop=1;jettySize=auto;html=1;exitX=0.51;exitY=0.237;exitDx=0;exitDy=0;entryX=1;entryY=0.5;entryDx=0;entryDy=0;strokeWidth=3;exitPerimeter=0;fillColor=#e51400;strokeColor=#B20000;" parent="1" source="FlTn0mczWMOFFjhAPzZO-48" target="FlTn0mczWMOFFjhAPzZO-37" edge="1">
                    <mxGeometry relative="1" as="geometry">
                        <Array as="points">
                            <mxPoint x="727" y="471"/>
                            <mxPoint x="753" y="471"/>
                            <mxPoint x="753" y="289"/>
                        </Array>
                    </mxGeometry>
                </mxCell>
                <mxCell id="FlTn0mczWMOFFjhAPzZO-52" value="UDP Send" style="edgeLabel;html=1;align=center;verticalAlign=middle;resizable=0;points=[];" parent="FlTn0mczWMOFFjhAPzZO-51" vertex="1" connectable="0">
                    <mxGeometry x="0.0849" y="-1" relative="1" as="geometry">
                        <mxPoint x="5" y="64" as="offset"/>
                    </mxGeometry>
                </mxCell>
                <mxCell id="FlTn0mczWMOFFjhAPzZO-48" value="" style="rhombus;whiteSpace=wrap;html=1;" parent="1" vertex="1">
                    <mxGeometry x="721" y="530" width="12" height="15" as="geometry"/>
                </mxCell>
                <mxCell id="FlTn0mczWMOFFjhAPzZO-54" style="edgeStyle=orthogonalEdgeStyle;rounded=0;orthogonalLoop=1;jettySize=auto;html=1;exitX=0;exitY=0.5;exitDx=0;exitDy=0;entryX=0.982;entryY=0.395;entryDx=0;entryDy=0;entryPerimeter=0;" parent="1" source="FlTn0mczWMOFFjhAPzZO-37" target="FlTn0mczWMOFFjhAPzZO-38" edge="1">
                    <mxGeometry relative="1" as="geometry"/>
                </mxCell>
                <mxCell id="FlTn0mczWMOFFjhAPzZO-60" style="edgeStyle=orthogonalEdgeStyle;rounded=0;orthogonalLoop=1;jettySize=auto;html=1;exitX=1;exitY=0.75;exitDx=0;exitDy=0;entryX=0.927;entryY=1;entryDx=0;entryDy=0;entryPerimeter=0;" parent="1" source="FlTn0mczWMOFFjhAPzZO-10" target="FlTn0mczWMOFFjhAPzZO-7" edge="1">
                    <mxGeometry relative="1" as="geometry">
                        <Array as="points">
                            <mxPoint x="639" y="751"/>
                            <mxPoint x="639" y="696"/>
                        </Array>
                    </mxGeometry>
                </mxCell>
                <mxCell id="FlTn0mczWMOFFjhAPzZO-61" value="m_udp" style="edgeLabel;html=1;align=center;verticalAlign=middle;resizable=0;points=[];" parent="FlTn0mczWMOFFjhAPzZO-60" vertex="1" connectable="0">
                    <mxGeometry x="0.3541" y="2" relative="1" as="geometry">
                        <mxPoint x="-28" y="39" as="offset"/>
                    </mxGeometry>
                </mxCell>
            </root>
        </mxGraphModel>
    </diagram>
</mxfile>